<svg width="35" height="46" fill="none" xmlns="http://www.w3.org/2000/svg"><path d="M0 5.673h4.316s2.572-.142 4.198 1.85l9.425 12.061h-6.614s-2.93.13-4.118-1.89L0 5.673Z" fill="url('#paint0_linear_1810_17201')"/><path d="m14.849 30.52 3.88 6.513s1.427 3.297 6.139 3.297h9.899L20.749 23.12l-5.9 1.368s-1.623 2.17 0 6.03Z" fill="url('#paint1_linear_1810_17201')"/><path d="m22.857 25.712-2.271-2.794-5.725 1.57s-1.623 2.172 0 6.032l.238.411c-.02-.255-.195-4.238 7.758-5.219Z" fill="url('#paint2_linear_1810_17201')"/><path d="M15.081 30.92s-1.793-4.68 4.059-6.922c0 0 4.168-1.514 6.956-.617 0 0-.193-3.42-7.04-3.195 0 0-3.615-.028-6.46.98 0 0-3.008.814-.772 4.317l3.257 5.438Z" fill="url('#paint3_linear_1810_17201')"/><defs><linearGradient id="paint0_linear_1810_17201" x1="8.969" y1="5.67" x2="8.969" y2="19.586" gradientUnits="userSpaceOnUse"><stop offset=".033" stop-color="#19AADE"/><stop offset=".951" stop-color="#134E8E"/></linearGradient><linearGradient id="paint1_linear_1810_17201" x1="24.447" y1="23.121" x2="24.447" y2="40.33" gradientUnits="userSpaceOnUse"><stop offset=".132" stop-color="#E02527"/><stop offset=".742" stop-color="#A1141C"/></linearGradient><linearGradient id="paint2_linear_1810_17201" x1="14.139" y1="26.925" x2="22.857" y2="26.925" gradientUnits="userSpaceOnUse"><stop offset=".005" stop-color="#71251D"/><stop offset=".742" stop-color="#C73127"/></linearGradient><linearGradient id="paint3_linear_1810_17201" x1="10.998" y1="25.548" x2="26.097" y2="25.548" gradientUnits="userSpaceOnUse"><stop offset=".148" stop-color="#E8EBEE"/><stop offset=".742" stop-color="#95A5AF"/></linearGradient></defs></svg>