<svg width="16" height="16" fill="none" xmlns="http://www.w3.org/2000/svg"><path d="M12.667 6V4a1.333 1.333 0 0 0-1.333-1.333H4.667A1.333 1.333 0 0 0 3.334 4v2" stroke="#7E8B97" stroke-width="1.5" stroke-linecap="round" stroke-linejoin="round"/><path d="M2 7.333v3.334A1.333 1.333 0 0 0 3.333 12h9.334A1.334 1.334 0 0 0 14 10.667V7.333a1.334 1.334 0 0 0-2.667 0v1.334H4.667V7.333a1.333 1.333 0 0 0-2.667 0v0ZM3.333 12v1.333M12.666 12v1.333" stroke="#7E8B97" stroke-width="1.5" stroke-linecap="round" stroke-linejoin="round"/></svg>