<svg width="108" height="16" fill="none" xmlns="http://www.w3.org/2000/svg"><path d="m4.52 8.032 97.008.138" stroke="#CACACA" stroke-width=".837" stroke-linecap="square" stroke-dasharray="1.67 4.18"/><path d="M50.366 15.604h1.653l4.132-6.36h4.545c.686 0 1.24-.532 1.24-1.192 0-.66-.554-1.192-1.24-1.192h-4.545L52.019.5h-1.653l2.066 6.36h-4.545l-1.24-1.59h-1.24l.827 2.782-.826 2.783h1.24l1.239-1.59h4.545l-2.066 6.36Z" fill="#1262AE"/><circle cx="4.617" cy="8" r="3.663" fill="#fff" stroke="#1262AE" stroke-width="1.674"/><path d="M106.389 8.684c0 1.818-1.541 3.347-3.512 3.347s-3.513-1.529-3.513-3.347 1.542-3.347 3.513-3.347c1.971 0 3.512 1.529 3.512 3.347Z" fill="#fff" stroke="#1262AE" stroke-width="1.674"/></svg>