<svg width="24" height="24" fill="none" xmlns="http://www.w3.org/2000/svg"><path fill-rule="evenodd" clip-rule="evenodd" d="M19.87 13.988c.086-.492.13-.99.13-1.49a7.54 7.54 0 0 0-.049-.873c-.006-.06-.976 1.928-2.527 3.187 1.08-.967 2.486-3.49 2.467-3.599a6.1 6.1 0 0 0-.058-.283c-.186-.813-.52-1.537-.976-2.323-.14 1.669-.634 3.446-1.93 4.983 1.345-1.613 1.812-5.286 1.492-5.792-1.29-2.02-4.003-3.79-6.909-3.79l-.02.054v-.05c-2.906 0-5.62 1.769-6.909 3.79-.32.505.147 4.179 1.491 5.791-1.295-1.537-1.788-3.314-1.93-4.982-.455.786-.79 1.509-.975 2.323-.021.094-.04.188-.058.283-.02.11 1.388 2.631 2.467 3.598-1.551-1.259-2.52-3.246-2.528-3.186-.033.29-.049.581-.048.873 0 .508.045 1.005.13 1.49.08.446 1.882 1.678 1.929 1.717-1.31-.512-1.85-1.316-1.801-1.122a8.493 8.493 0 0 0 8.232 6.404v-.003h.02a8.493 8.493 0 0 0 8.232-6.405c.05-.194-.491.61-1.8 1.122.046-.039 1.848-1.27 1.928-1.717Zm-5.615.326a1.92 1.92 0 0 1-.262.094c-.814.222-1.945.14-2.474-.551-.536-.7-.387-1.833.029-2.55.42-.722 1.05-1.259 1.611-1.867.268-.29.542-.576.82-.857.181-.182.675-.574.664-.836-.004-.124-.23-.342-.292-.459-.091-.17-.148-.342-.246-.504-.216-.36-.506-.524-.896-.6-.488-.097-.839-.054-1.243.217-.304.204-.62.584-.992.624-.588.063-3.144.487-3.265.563.315-.023 4.17.052 4.607.16.513.125.49.54.141.865-1.096 1.023-2.711 1.632-3.4 3.04-.322.659-.528 1.104-.53 1.874 0 .318.025.969.417 1.778-.018-.012-.62-.722-.643-1.322-1.451-.97-2.19-2.42-2.19-4.309 0-2.993 2.404-5.419 5.37-5.419 2.964 0 5.368 2.426 5.368 5.42 0 1.967-.841 3.788-2.594 4.64Z" fill="#B4282E"/><path fill-rule="evenodd" clip-rule="evenodd" d="m11.713 15.959-.7 1.924c-.404 1.11-2.118.876-2.178.876-.141 0-.249-.015-.356-.117l.256-.286a.432.432 0 0 0 .255.074c.08 0 .96.192 1.223-.547l.7-1.924h.8Zm4.946 2.413-.118.325h-2.41l.996-2.738h.81l-.88 2.413h1.602Zm-3.592-2.407-2.135 2.738h.414l.54-.743h.968l-.161.743h.851l.654-2.738h-1.132Zm-.899 1.607 1.101-1.348-.303 1.348h-.798Z" fill="#fff"/></svg>