<svg width="24" height="24" fill="none" xmlns="http://www.w3.org/2000/svg"><path d="M10.185 20.506h-1.54l3.11-4.426s.466-.916-.142-1.886L7.278 7.721s-.38-.6 0-1.176l1.283-1.73 5.088 7.494s1.312 1.569-.114 3.514l-3.35 4.683Z" fill="#FCB130"/><path d="m13.903 19.149 1.89-2.598s.552-1.071 1.978-1.071h2.007l1.399 1.988s-1.104-.102-1.598.607l-2.062 2.804s-.673 1.312-2.472 1.312H5.33l3.696-5.116s.523-.6-.208-1.595l-3.29-4.767s-.808-.704.03-1.911l.96-1.312 4.57 6.68s.81.917 0 2.017l-3.432 4.825h7.238s.816.136 1.518-.807l1.798-2.495s.41-.84 1.312-1.183h-1.455s-.76.027-1.338.84l-1.598 2.229s-.58.943-1.864.943h-2.53l3.053-4.271s1.663-1.971.494-3.78l-5.06-7.545s-.38-.653.059-1.26l1.104-1.492 5.76 8.365s.846 1.253.846 2.222c0 .969-.673 2.067-1.046 2.623l-2.537 3.566s-.286.343-.085.472c.206.129.407-.103.579-.29Z" fill="#FCB130"/></svg>