<svg width="24" height="24" fill="none" xmlns="http://www.w3.org/2000/svg"><path d="M4 4.59h1.986s1.184-.065 1.932.844l4.337 5.507H9.212s-1.349.06-1.895-.863L4 4.59Z" fill="url('#paint0_linear_1810_17305')"/><path d="m10.834 15.933 1.786 2.974s.656 1.505 2.825 1.505H20l-6.451-7.856-2.715.624s-.747.991 0 2.753Z" fill="url('#paint1_linear_1810_17305')"/><path d="m14.52 13.738-1.046-1.276-2.635.718s-.747.99 0 2.753l.11.188c-.01-.117-.09-1.935 3.57-2.383Z" fill="url('#paint2_linear_1810_17305')"/><path d="M10.94 16.116s-.825-2.137 1.868-3.16c0 0 1.919-.692 3.202-.282 0 0-.089-1.561-3.24-1.459 0 0-1.664-.012-2.973.448 0 0-1.385.371-.356 1.97l1.5 2.483Z" fill="url('#paint3_linear_1810_17305')"/><defs><linearGradient id="paint0_linear_1810_17305" x1="12" y1="4.589" x2="12" y2="20.412" gradientUnits="userSpaceOnUse"><stop offset=".033" stop-color="#19AADE"/><stop offset=".951" stop-color="#134E8E"/></linearGradient><linearGradient id="paint1_linear_1810_17305" x1="12" y1="4.589" x2="12" y2="20.412" gradientUnits="userSpaceOnUse"><stop offset=".132" stop-color="#E02527"/><stop offset=".742" stop-color="#A1141C"/></linearGradient><linearGradient id="paint2_linear_1810_17305" x1="4.001" y1="12.501" x2="20" y2="12.501" gradientUnits="userSpaceOnUse"><stop offset=".005" stop-color="#71251D"/><stop offset=".742" stop-color="#C73127"/></linearGradient><linearGradient id="paint3_linear_1810_17305" x1="9.061" y1="13.663" x2="16.01" y2="13.663" gradientUnits="userSpaceOnUse"><stop offset=".148" stop-color="#E8EBEE"/><stop offset=".742" stop-color="#95A5AF"/></linearGradient></defs></svg>