<svg width="35" height="46" fill="none" xmlns="http://www.w3.org/2000/svg"><path fill-rule="evenodd" clip-rule="evenodd" d="M34.5 25.975c.178-.983.267-1.98.267-2.978 0-.615-.034-1.194-.1-1.746-.014-.12-1.996 3.855-5.168 6.372 2.207-1.933 5.085-6.977 5.044-7.196-.035-.19-.074-.378-.118-.567-.38-1.627-1.063-3.073-1.995-4.645-.289 3.337-1.298 6.891-3.946 9.965 2.748-3.226 3.704-10.572 3.05-11.583-2.637-4.042-8.187-7.58-14.13-7.58l-.042.107v-.1c-5.942 0-11.492 3.538-14.128 7.58-.655 1.011.3 8.358 3.049 11.583-2.648-3.074-3.657-6.628-3.946-9.965C1.404 16.794.721 18.24.342 19.868c-.044.188-.084.377-.119.566-.04.219 2.838 5.263 5.045 7.196C2.096 25.113.113 21.138.099 21.258c-.067.58-.1 1.162-.099 1.746 0 1.016.091 2.011.266 2.979.162.894 3.849 3.357 3.944 3.435C1.533 28.395.427 26.785.528 27.174c1.9 7.361 8.717 12.81 16.834 12.81v-.009h.042c8.118 0 14.934-5.447 16.835-12.808.1-.389-1.005 1.22-3.683 2.243.095-.077 3.782-2.54 3.944-3.435Zm-11.483.654a3.974 3.974 0 0 1-.534.187c-1.665.443-3.98.28-5.061-1.102-1.095-1.398-.792-3.666.059-5.098.86-1.445 2.149-2.52 3.295-3.736.55-.58 1.109-1.151 1.678-1.713.37-.365 1.379-1.15 1.358-1.672-.01-.248-.47-.684-.598-.919-.186-.341-.303-.683-.502-1.008-.442-.718-1.035-1.047-1.834-1.201-.998-.193-1.715-.107-2.542.435-.622.407-1.27 1.167-2.03 1.248-1.2.126-6.428.974-6.676 1.127.645-.047 8.529.103 9.422.318 1.05.252 1.002 1.08.29 1.73-2.243 2.048-5.546 3.266-6.954 6.082-.659 1.317-1.082 2.208-1.083 3.748 0 .635.05 1.937.852 3.554-.037-.024-1.268-1.442-1.317-2.642-2.967-1.94-4.476-4.842-4.476-8.618 0-5.986 4.916-10.839 10.98-10.839 6.063 0 10.979 4.853 10.979 10.839 0 3.936-1.72 7.577-5.306 9.28Z" fill="#B4282E"/><path fill-rule="evenodd" clip-rule="evenodd" d="m17.819 29.917-1.433 3.85c-.825 2.217-4.33 1.751-4.453 1.751-.288 0-.509-.03-.729-.235l.525-.57c.125.093.32.148.52.148.164 0 1.964.382 2.501-1.095l1.433-3.849h1.636Zm10.115 4.827-.242.65h-4.928l2.038-5.477h1.654l-1.797 4.827h3.275Zm-7.347-4.813-4.366 5.475h.848l1.105-1.486h1.978l-.33 1.486h1.742l1.338-5.475h-2.315Zm-1.837 3.213 2.252-2.696-.62 2.696h-1.633Z" fill="#fff"/></svg>