<svg width="174" height="34" fill="none" xmlns="http://www.w3.org/2000/svg"><g clip-path="url('#clip0_1003_25300')"><path d="M129.851 8.362c1.363 0 2.601.174 3.713.52 1.112.347 2.051.796 2.816 1.346.478.335.855.705 1.13 1.112.275.406.413.933.413 1.578v12.556l-.006.342c-.04 1.123-.277 2.104-.712 2.94a6.595 6.595 0 0 1-1.955 2.297c-.825.61-1.794 1.058-2.906 1.345-1.112.287-2.302.43-3.569.43-2.177 0-3.887-.292-5.13-.878-1.244-.586-1.866-1.537-1.866-2.852 0-.55.114-1.035.341-1.453.227-.419.484-.736.771-.95a12.07 12.07 0 0 0 2.35.968 9.337 9.337 0 0 0 2.709.394c1.291 0 2.319-.215 3.085-.645.765-.43 1.148-1.124 1.148-2.081v-.574l-.273.112c-.927.356-2.032.534-3.315.534a9.636 9.636 0 0 1-3.067-.485 6.855 6.855 0 0 1-2.547-1.506c-.73-.682-1.316-1.561-1.758-2.637-.442-1.076-.664-2.356-.664-3.839 0-1.459.234-2.726.7-3.803.466-1.076 1.112-1.967 1.937-2.672.825-.706 1.806-1.232 2.942-1.579 1.136-.346 2.374-.52 3.713-.52Zm-96.564.557c2.133 0 3.878.479 5.236 1.436 1.357.957 2.161 2.648 2.41 5.072h-4.556l-.044-.268a3.904 3.904 0 0 0-.596-1.449c-.5-.687-1.274-1.03-2.325-1.03-1.498 0-2.523.744-3.075 2.232-.29.79-.437 1.841-.437 3.152 0 1.249.146 2.253.437 3.012.531 1.415 1.53 2.123 2.997 2.123 1.04 0 1.779-.281 2.216-.843.437-.562.702-1.29.796-2.185h4.541l-.03.31c-.152 1.239-.63 2.415-1.437 3.53-1.394 1.945-3.46 2.917-6.196 2.917-2.736 0-4.749-.811-6.039-2.434-1.29-1.623-1.935-3.73-1.935-6.32 0-2.924.713-5.197 2.138-6.82 1.425-1.623 3.392-2.435 5.899-2.435Zm41.331-.047c1.415 0 2.69.266 3.824.796s2.07 1.368 2.809 2.513c.666 1.009 1.098 2.18 1.295 3.511.115.78.161 1.904.14 3.371H71.046l.016.296c.11 1.55.641 2.647 1.591 3.293.614.427 1.353.64 2.216.64.916 0 1.66-.26 2.232-.78.312-.281.588-.671.827-1.17h4.541l-.034.233c-.163.933-.678 1.88-1.542 2.84-1.456 1.655-3.496 2.482-6.117 2.482-2.165 0-4.074-.697-5.728-2.091-1.654-1.394-2.481-3.662-2.481-6.804 0-2.944.746-5.202 2.24-6.773 1.492-1.571 3.43-2.357 5.813-2.357Zm31.23-6.25c.526 0 .998.036 1.417.108.418.072.771.215 1.058.43.287.216.508.509.664.88.155.37.233.854.233 1.452V26.3l-.121.022c-.256.045-.604.104-1.045.176a9.703 9.703 0 0 1-1.561.125c-.526 0-.998-.035-1.417-.107a2.414 2.414 0 0 1-1.058-.43 2.075 2.075 0 0 1-.664-.88c-.155-.37-.233-.855-.233-1.453V2.945l.121-.021c.256-.046.604-.104 1.045-.176a9.692 9.692 0 0 1 1.561-.126Zm9.167 6.207c.526 0 .999.035 1.417.107a2.41 2.41 0 0 1 1.058.43c.287.216.509.509.664.88.156.37.233.855.233 1.453v14.6l-.12.022c-.256.045-.605.104-1.046.176a9.69 9.69 0 0 1-1.56.125c-.526 0-.999-.035-1.417-.107a2.41 2.41 0 0 1-1.058-.43 2.067 2.067 0 0 1-.664-.88c-.156-.37-.233-.855-.233-1.453v-14.6l.12-.022c.256-.046.605-.104 1.046-.176a9.69 9.69 0 0 1 1.56-.125Zm28.559-6.207c.527 0 .999.036 1.417.108.419.072.772.215 1.059.43.287.216.508.509.663.88.156.37.234.854.234 1.452v3.516l.124-.046c.307-.108.738-.23 1.293-.367a8.802 8.802 0 0 1 2.098-.233c2.368 0 4.216.592 5.543 1.776 1.327 1.184 1.991 2.948 1.991 5.292V26.3l-.111.03a9.734 9.734 0 0 1-1.019.185c-.514.072-1.046.107-1.596.107-.527 0-.999-.035-1.418-.107a2.414 2.414 0 0 1-1.058-.43 2.065 2.065 0 0 1-.663-.88c-.156-.37-.234-.855-.234-1.453v-7.964l-.004-.22c-.035-.864-.279-1.478-.731-1.842-.49-.395-1.094-.593-1.812-.593-.478 0-.933.06-1.363.18-.43.12-.777.263-1.04.43V26.3l-.111.031a9.784 9.784 0 0 1-1.019.185c-.515.072-1.047.107-1.597.107-.526 0-.998-.035-1.417-.107a2.414 2.414 0 0 1-1.058-.43 2.075 2.075 0 0 1-.664-.88c-.155-.37-.233-.855-.233-1.453V2.945l.12-.021a81.97 81.97 0 0 1 1.046-.176 9.69 9.69 0 0 1 1.56-.126Zm-42.948 1.973.082.14c.135.244.257.55.367.919.131.442.197.903.197 1.38 0 .934-.197 1.597-.592 1.992-.395.395-.927.592-1.596.592H91.55v4.054h7.856l.094.138c.15.243.281.543.39.902.132.43.198.885.198 1.363 0 .91-.197 1.56-.592 1.955-.394.395-.927.592-1.596.592h-6.278v7.57l-.122.03a11.66 11.66 0 0 1-1.116.185c-.562.072-1.118.108-1.668.108-.55 0-1.034-.042-1.453-.126a2.582 2.582 0 0 1-1.058-.448 1.938 1.938 0 0 1-.646-.897c-.144-.383-.215-.885-.215-1.507V7.932l.006-.253c.046-.91.343-1.639.89-2.187.599-.598 1.412-.897 2.44-.897h11.946ZM16.308 3.363v4.042H4.775v5.29h10.097v3.996H4.775v9.644H0V3.363h16.308Zm6.515 5.962v17.01h-4.51V9.325h4.51Zm24.58-5.915v12.391l5.54-6.398h5.508l-5.946 6.508 6.18 10.424h-5.368l-4.073-7.272-1.842 1.92v5.352h-4.37V3.41h4.37Zm17.08-.078v23.003h-4.448V3.332h4.448Zm93.845 1.116c.746-.224 2.018-.274 3.508.385 1.503.665 2.441 1.805 2.813 3.421l8.072.686c.1.006.199.026.298.061.148.052.228.125.295.183.164.14.217.249.295.443.139.345.097.751-.084 1.03-.292.449-.748.74-1.369.871l-6.517 1.385 1.151 5.412c.132.621.423 1.021.873 1.2.45.18 1.033.193 1.75.04a7.351 7.351 0 0 0 1.092-.326c.37-.14.688-.29.954-.446.271.217.518.47.742.76.224.29.384.662.481 1.116.356 1.678-2.285 3.263-4.016 3.574-1.604.288-4.064.528-5.471-3.157-1.406-3.685-3.615-9.861-5.301-15.008-.146-.445-.236-.88-.08-1.24.085-.195.146-.28.514-.39Zm-28.19 8.686c-1.172 0-2.051.328-2.637.986-.586.658-.879 1.597-.879 2.816 0 1.387.293 2.386.879 2.996.586.61 1.333.915 2.242.915.981 0 1.758-.228 2.332-.682v-6.601l-.11-.057a4.3 4.3 0 0 0-.625-.23c-.323-.096-.724-.143-1.202-.143Zm-55.52-.594c-1.03 0-1.828.322-2.395.967s-.923 1.52-1.07 2.622h6.914c-.072-1.176-.429-2.068-1.069-2.676-.64-.609-1.433-.913-2.38-.913ZM22.823 3.192v4.104h-4.51V3.192h4.51ZM115.338.829c1.004 0 1.812.31 2.422.932.609.622.914 1.387.914 2.296 0 .91-.305 1.674-.914 2.296-.61.622-1.418.933-2.422.933-1.004 0-1.812-.31-2.422-.933-.609-.622-.914-1.387-.914-2.296 0-.909.305-1.674.914-2.296.61-.621 1.418-.932 2.422-.932Z" fill="#fff"/></g><defs><clipPath id="clip0_1003_25300"><path fill="#fff" transform="translate(0 .303)" d="M0 0h174v33H0z"/></clipPath></defs></svg>