<svg width="35" height="46" fill="none" xmlns="http://www.w3.org/2000/svg"><path d="M10.882 42.125H7.537l6.759-10.18s1.01-2.108-.31-4.337L4.566 12.72s-.827-1.38 0-2.706l2.787-3.98L18.409 23.27s2.85 3.61-.247 8.082l-7.28 10.772Z" fill="#FCB130"/><path d="m18.961 39.003 4.108-5.974s1.2-2.464 4.297-2.464h4.36l3.04 4.573s-2.398-.236-3.47 1.395l-4.482 6.45S25.352 46 21.444 46H.33l8.032-11.766s1.136-1.38-.453-3.67L.762 19.603s-1.756-1.622.064-4.398l2.088-3.016 9.93 15.365s1.757 2.108 0 4.638L5.386 43.289h15.726s1.773.312 3.298-1.857l3.908-5.737s.89-1.933 2.851-2.721h-3.161s-1.652.06-2.909 1.933l-3.471 5.125s-1.262 2.168-4.05 2.168H12.08l6.633-9.823s3.613-4.533 1.073-8.694L8.794 6.33s-.826-1.501.126-2.897L11.32 0l12.518 19.24s1.836 2.882 1.836 5.11c0 2.229-1.463 4.754-2.273 6.034l-5.512 8.202s-.62.788-.184 1.084c.447.296.884-.236 1.257-.667Z" fill="#FCB130"/></svg>