<svg width="130" height="30" fill="none" xmlns="http://www.w3.org/2000/svg"><g clip-path="url('#clip0_1016_12789')"><path d="M15 .6C7.047.6.6 7.047.6 15S7.047 29.4 15 29.4 29.4 22.953 29.4 15 22.953.6 15 .6Zm3.411 9.951h-2.164c-.257 0-.542.338-.542.786V12.9h2.708l-.41 2.23h-2.298v6.69h-2.554v-6.69h-2.318V12.9h2.318v-1.31c0-1.882 1.305-3.41 3.096-3.41h2.164v2.371Z" fill="#fff"/></g><g clip-path="url('#clip1_1016_12789')"><path d="M115 .6c-7.953 0-14.4 6.447-14.4 14.4s6.447 14.4 14.4 14.4 14.4-6.447 14.4-14.4S122.953.6 115 .6Zm5.858 11.796c.006.123.007.246.007.366 0 3.75-2.851 8.072-8.068 8.072a8.001 8.001 0 0 1-4.347-1.275c.22.027.447.037.676.037a5.68 5.68 0 0 0 3.522-1.213 2.843 2.843 0 0 1-2.649-1.968c.425.08.862.063 1.28-.05a2.835 2.835 0 0 1-2.276-2.78v-.035c.383.211.821.34 1.286.355a2.834 2.834 0 0 1-.878-3.789 8.071 8.071 0 0 0 5.846 2.966 2.833 2.833 0 0 1 1.422-3.152 2.835 2.835 0 0 1 3.411.564 5.707 5.707 0 0 0 1.8-.688 2.853 2.853 0 0 1-1.247 1.57 5.703 5.703 0 0 0 1.629-.448 5.748 5.748 0 0 1-1.414 1.468Z" fill="#fff"/></g><g clip-path="url('#clip2_1016_12789')"><path d="M69.5 15a4.5 4.5 0 1 1-9 0c0-.256.027-.507.074-.75H59v5.996c0 .417.338.754.755.754h10.492a.755.755 0 0 0 .753-.754V14.25h-1.573c.046.243.073.494.073.75ZM65 18A3 3 0 1 0 65 12 3 3 0 0 0 65 18Zm3.6-6.15H70.4a.452.452 0 0 0 .451-.45V9.602a.452.452 0 0 0-.451-.452H68.6a.452.452 0 0 0-.451.452V11.4c.001.248.204.45.451.45ZM65 .6a14.4 14.4 0 1 0 0 28.8A14.4 14.4 0 0 0 65 .6Zm7.5 20.234c0 .916-.75 1.666-1.666 1.666H59.167c-.917 0-1.667-.75-1.667-1.666V9.167c0-.917.75-1.667 1.667-1.667h11.667c.916 0 1.666.75 1.666 1.667v11.667Z" fill="#fff"/></g><defs><clipPath id="clip0_1016_12789"><path fill="#fff" d="M0 0h30v30H0z"/></clipPath><clipPath id="clip1_1016_12789"><path fill="#fff" transform="translate(100)" d="M0 0h30v30H0z"/></clipPath><clipPath id="clip2_1016_12789"><path fill="#fff" transform="translate(50)" d="M0 0h30v30H0z"/></clipPath></defs></svg>