<svg width="35" height="46" fill="none" xmlns="http://www.w3.org/2000/svg"><path fill-rule="evenodd" clip-rule="evenodd" d="M17.384 8.084c-8.609 0-15.653 7.204-15.653 16.174 0 8.97 7.045 16.172 15.653 16.172 8.607 0 15.652-7.203 15.652-16.172 0-8.97-7.046-16.174-15.652-16.174ZM.177 24.258c0-9.733 7.665-17.693 17.207-17.693 9.54 0 17.206 7.96 17.206 17.693 0 9.732-7.665 17.691-17.206 17.691C7.842 41.95.177 33.99.177 24.258Z" fill="#CF4037"/><path fill-rule="evenodd" clip-rule="evenodd" d="M22.344 20.545c-.757-5.248-5.18-7.839-7.943-9.39-2.564-1.44-4.86-2.095-4.916-1.926 2.917 2.346 4.79 6 4.79 10.104 0 6.732-5.04 12.25-11.441 12.766l.404.625c8.196-1.276 30.128-5.348 30.128-5.348l.059-.479-13.307-.455c1.469-1.552 2.474-4.187 2.226-5.897Z" fill="#CF4037"/></svg>