<svg width="19" height="17" fill="none" xmlns="http://www.w3.org/2000/svg"><path d="m18.199 6.21-5.638-.73-2.52-4.552A.673.673 0 0 0 9.719.64c-.351-.154-.777-.026-.953.287L6.246 5.48l-5.638.73a.743.743 0 0 0-.406.184.6.6 0 0 0-.202.45c.003.168.08.329.215.446l4.079 3.543-.964 5.003a.568.568 0 0 0 .042.345.65.65 0 0 0 .24.274.784.784 0 0 0 .748.047l5.043-2.361 5.043 2.362a.782.782 0 0 0 .451.063c.386-.06.646-.386.58-.73l-.964-5.003 4.079-3.543a.61.61 0 0 0 .206-.362c.06-.346-.21-.667-.6-.718Z" fill="#FDBF00"/></svg>