<svg width="19" height="17" fill="none" xmlns="http://www.w3.org/2000/svg"><path d="m18.199 5.786-5.638-.73-2.52-4.552a.673.673 0 0 0-.322-.287C9.368.063 8.942.19 8.766.504l-2.52 4.552-5.638.73a.743.743 0 0 0-.406.184.6.6 0 0 0-.202.45c.003.168.08.328.215.446l4.079 3.543-.964 5.003a.568.568 0 0 0 .042.345c.05.11.133.205.24.274a.784.784 0 0 0 .748.047l5.043-2.361 5.043 2.361a.782.782 0 0 0 .451.064c.386-.06.646-.386.58-.73l-.964-5.003 4.079-3.543a.61.61 0 0 0 .206-.362c.06-.346-.21-.667-.6-.718Z" fill="#FDBF00"/></svg>